<svg width="50" height="50" viewBox="0 0 50 50" fill="none" xmlns="http://www.w3.org/2000/svg">
<path d="M0.0369509 38.4705C-0.00445862 38.605 -0.00997954 38.7479 0.0209364 38.8851C0.0518523 39.0223 0.118129 39.149 0.213186 39.2527C0.308243 39.3564 0.428773 39.4334 0.562807 39.4761C0.696841 39.5188 0.839716 39.5257 0.977244 39.4962L9.98422 37.5659C12.7561 39.1853 15.8755 40.1176 19.0815 40.2847C20.0141 42.4403 21.4069 44.3659 23.1623 45.9264C24.9178 47.487 26.9934 48.6448 29.2436 49.3187C31.4938 49.9926 33.8641 50.1662 36.1885 49.8274C38.513 49.4887 40.7351 48.6457 42.6993 47.3576L48.883 49.9378C49.0305 49.9994 49.193 50.0157 49.3498 49.9847C49.5067 49.9537 49.6508 49.8769 49.7638 49.7638C49.8768 49.6508 49.9537 49.5068 49.9847 49.3499C50.0157 49.1931 49.9994 49.0307 49.9378 48.8832L47.3621 42.7004C48.6498 40.7368 49.4925 38.5155 49.8313 36.192C50.17 33.8685 49.9966 31.4991 49.3231 29.2497C48.6497 27.0002 47.4925 24.9252 45.9326 23.17C44.3727 21.4148 42.4479 20.0218 40.2929 19.0886C40.1317 16.0532 39.286 13.0937 37.8191 10.4313C36.3523 7.76893 34.3022 5.47272 31.8223 3.7145C29.3424 1.95627 26.497 0.781556 23.4989 0.278253C20.5008 -0.22505 17.4276 -0.0439076 14.5094 0.808125C11.5912 1.66016 8.90355 3.16102 6.64747 5.1984C4.39139 7.23578 2.62535 9.75692 1.4815 12.5732C0.337653 15.3894 -0.154388 18.4279 0.042198 21.4611C0.238784 24.4944 1.11891 27.4439 2.61671 30.089L0.0369509 38.4705ZM48.387 33.8698C48.3907 36.8296 47.483 39.7188 45.7871 42.1449C45.71 42.2562 45.6622 42.3852 45.6481 42.52C45.634 42.6547 45.6541 42.7908 45.7065 42.9157L47.6967 47.6922L42.9195 45.7023C42.7945 45.6499 42.6584 45.6298 42.5237 45.6439C42.3889 45.658 42.2599 45.7058 42.1485 45.7829C40.4353 46.9745 38.4851 47.7825 36.431 48.1517C34.377 48.5208 32.2674 48.4425 30.2464 47.922C28.2254 47.4015 26.3405 46.4511 24.7204 45.1357C23.1003 43.8203 21.7831 42.1709 20.8589 40.3C25.9583 40.118 30.7994 38.011 34.4075 34.4034C38.0157 30.7958 40.1229 25.9555 40.305 20.8568C42.7378 22.049 44.7859 23.9016 46.2151 26.2028C47.6443 28.504 48.397 31.161 48.387 33.8698ZM1.61432 20.1626C1.61596 16.0652 2.97527 12.0837 5.4798 8.84057C7.98433 5.59741 11.4929 3.27528 15.4573 2.23712C19.4216 1.19897 23.6182 1.50328 27.3912 3.10249C31.1642 4.70171 34.301 7.50572 36.3113 11.0763C38.3216 14.6468 39.0921 18.7827 38.5025 22.8375C37.9128 26.8922 35.9961 30.6374 33.052 33.4877C30.108 36.3379 26.3024 38.1326 22.2301 38.5913C18.1578 39.0499 14.0483 38.1466 10.5439 36.0226C10.4178 35.9458 10.273 35.9051 10.1253 35.9049C10.0684 35.9051 10.0117 35.911 9.95599 35.9226L1.98286 37.6312L4.26182 30.2269C4.29389 30.1196 4.30328 30.0069 4.28939 29.8959C4.27551 29.7848 4.23865 29.6779 4.18117 29.5818C2.49861 26.728 1.61221 23.4753 1.61432 20.1626Z" fill="#04C3E2"/>
<path d="M41.1292 37.9013C42.02 37.9013 42.7421 37.1793 42.7421 36.2887C42.7421 35.3981 42.02 34.6761 41.1292 34.6761C40.2384 34.6761 39.5163 35.3981 39.5163 36.2887C39.5163 37.1793 40.2384 37.9013 41.1292 37.9013Z" fill="#04C3E2"/>
<path d="M36.2906 37.9013C37.1814 37.9013 37.9035 37.1793 37.9035 36.2887C37.9035 35.3981 37.1814 34.6761 36.2906 34.6761C35.3999 34.6761 34.6778 35.3981 34.6778 36.2887C34.6778 37.1793 35.3999 37.9013 36.2906 37.9013Z" fill="#04C3E2"/>
<path d="M12.9043 23.3878C12.2627 23.3878 11.6473 23.6426 11.1936 24.0963C10.7399 24.5499 10.485 25.1652 10.485 25.8067C10.485 26.4482 10.7399 27.0635 11.1936 27.5171C11.6473 27.9708 12.2627 28.2256 12.9043 28.2256C14.6147 28.2237 16.2545 27.5435 17.464 26.3342C18.6735 25.1249 19.3538 23.4854 19.3557 21.7752V17.7437C19.3544 16.6748 18.9292 15.6501 18.1733 14.8944C17.4174 14.1386 16.3926 13.7134 15.3236 13.7121H14.5171C13.4478 13.7121 12.4222 14.1369 11.666 14.8929C10.9098 15.649 10.485 16.6744 10.485 17.7437C10.485 18.8129 10.9098 19.8383 11.666 20.5944C12.4222 21.3504 13.4478 21.7752 14.5171 21.7752C14.5171 22.2029 14.3472 22.613 14.0447 22.9155C13.7423 23.2179 13.332 23.3878 12.9043 23.3878ZM14.5171 20.1626C13.8755 20.1626 13.2602 19.9077 12.8064 19.4541C12.3527 19.0005 12.0979 18.3852 12.0979 17.7437C12.0979 17.1021 12.3527 16.4869 12.8064 16.0332C13.2602 15.5796 13.8755 15.3247 14.5171 15.3247H15.3236C15.9652 15.3247 16.5805 15.5796 17.0343 16.0332C17.488 16.4869 17.7428 17.1021 17.7428 17.7437V21.7752C17.7416 23.0579 17.2314 24.2876 16.3242 25.1946C15.4171 26.1016 14.1872 26.6117 12.9043 26.613C12.6904 26.613 12.4853 26.5281 12.3341 26.3769C12.1828 26.2256 12.0979 26.0206 12.0979 25.8067C12.0979 25.5929 12.1828 25.3878 12.3341 25.2366C12.4853 25.0854 12.6904 25.0004 12.9043 25.0004C13.7598 25.0004 14.5803 24.6606 15.1852 24.0558C15.7901 23.4509 16.13 22.6306 16.13 21.7752C16.13 21.3475 15.9601 20.9373 15.6576 20.6349C15.3551 20.3325 14.9449 20.1626 14.5171 20.1626Z" fill="#04C3E2"/>
<path d="M23.3878 23.3878C22.7462 23.3878 22.1308 23.6426 21.6771 24.0963C21.2234 24.5499 20.9685 25.1652 20.9685 25.8067C20.9685 26.4482 21.2234 27.0635 21.6771 27.5171C22.1308 27.9708 22.7462 28.2256 23.3878 28.2256C25.0983 28.2237 26.7381 27.5435 27.9475 26.3342C29.157 25.1249 29.8373 23.4854 29.8392 21.7752V17.7437C29.838 16.6748 29.4127 15.6501 28.6568 14.8944C27.9009 14.1386 26.8761 13.7134 25.8071 13.7121H25.0007C23.9313 13.7121 22.9057 14.1369 22.1495 14.8929C21.3934 15.649 20.9685 16.6744 20.9685 17.7437C20.9685 18.8129 21.3934 19.8383 22.1495 20.5944C22.9057 21.3504 23.9313 21.7752 25.0007 21.7752C25.0007 22.2029 24.8308 22.613 24.5283 22.9155C24.2258 23.2179 23.8156 23.3878 23.3878 23.3878ZM25.0007 20.1626C24.359 20.1626 23.7437 19.9077 23.29 19.4541C22.8363 19.0005 22.5814 18.3852 22.5814 17.7437C22.5814 17.1021 22.8363 16.4869 23.29 16.0332C23.7437 15.5796 24.359 15.3247 25.0007 15.3247H25.8071C26.4487 15.3247 27.0641 15.5796 27.5178 16.0332C27.9715 16.4869 28.2264 17.1021 28.2264 17.7437V21.7752C28.2251 23.0579 27.7149 24.2876 26.8078 25.1946C25.9007 26.1016 24.6707 26.6117 23.3878 26.613C23.1739 26.613 22.9688 26.5281 22.8176 26.3769C22.6664 26.2256 22.5814 26.0206 22.5814 25.8067C22.5814 25.5929 22.6664 25.3878 22.8176 25.2366C22.9688 25.0854 23.1739 25.0004 23.3878 25.0004C24.2433 25.0004 25.0638 24.6606 25.6687 24.0558C26.2737 23.4509 26.6135 22.6306 26.6135 21.7752C26.6135 21.3475 26.4436 20.9373 26.1411 20.6349C25.8387 20.3325 25.4284 20.1626 25.0007 20.1626Z" fill="#04C3E2"/>
</svg>
