<svg width="35" height="35" viewBox="0 0 35 35" fill="none" xmlns="http://www.w3.org/2000/svg">
<path d="M17.5005 9.0332C15.0104 9.0332 12.9844 11.0593 12.9844 13.5493C12.9844 16.0394 15.0104 18.0655 17.5005 18.0655C19.9906 18.0655 22.0166 16.0394 22.0166 13.5493C22.0166 11.0593 19.9906 9.0332 17.5005 9.0332ZM17.5005 16.9364C15.6325 16.9364 14.1134 15.4173 14.1134 13.5493C14.1134 11.6813 15.6325 10.1622 17.5005 10.1622C19.3685 10.1622 20.8876 11.6813 20.8876 13.5493C20.8876 15.4173 19.3685 16.9364 17.5005 16.9364Z" fill="#04C3E2"/>
<path d="M17.5003 11.291C16.2549 11.291 15.2422 12.3038 15.2422 13.5491C15.2422 14.7944 16.2549 15.8071 17.5003 15.8071C18.7456 15.8071 19.7583 14.7944 19.7583 13.5491C19.7583 12.3038 18.7456 11.291 17.5003 11.291ZM17.5003 14.6781C16.8776 14.6781 16.3712 14.1717 16.3712 13.5491C16.3712 12.9264 16.8776 12.42 17.5003 12.42C18.1229 12.42 18.6293 12.9264 18.6293 13.5491C18.6293 14.1717 18.1229 14.6781 17.5003 14.6781Z" fill="#04C3E2"/>
<path d="M32.1774 10.7258C30.8147 10.7258 29.6744 11.6973 29.4119 12.9839H28.1993C28.0677 10.461 27.0708 8.15048 25.4727 6.37339L26.521 5.32508C26.8574 5.52379 27.2435 5.64516 27.6613 5.64516C28.9066 5.64516 29.9194 4.63242 29.9194 3.3871C29.9194 2.14177 28.9066 1.12903 27.6613 1.12903C26.416 1.12903 25.4032 2.14177 25.4032 3.3871C25.4032 3.80484 25.5246 4.19097 25.7233 4.52685L24.6716 5.57855C23.2756 4.32024 21.5453 3.42097 19.6113 3.03597C19.7016 2.79266 19.7581 2.53242 19.7581 2.25806C19.7581 1.01274 18.7453 0 17.5 0C16.2547 0 15.2419 1.01274 15.2419 2.25806C15.2419 2.53242 15.2984 2.79266 15.3887 3.03597C13.4552 3.42097 11.725 4.32024 10.329 5.57855L9.27726 4.52685C9.4754 4.19097 9.59677 3.80484 9.59677 3.3871C9.59677 2.14177 8.58403 1.12903 7.33871 1.12903C6.09339 1.12903 5.08065 2.14177 5.08065 3.3871C5.08065 4.63242 6.09339 5.64516 7.33871 5.64516C7.75645 5.64516 8.14258 5.52379 8.47847 5.32508L9.52677 6.37339C7.92863 8.15048 6.93169 10.461 6.80016 12.9833H5.58758C5.32565 11.6973 4.18532 10.7258 2.82258 10.7258C1.26621 10.7258 0 11.992 0 13.5484C0 15.1048 1.26621 16.371 2.82258 16.371C4.18532 16.371 5.32565 15.3994 5.58815 14.1129H6.80073C6.92944 16.5629 7.88121 18.887 9.53073 20.72L8.47903 21.7717C8.14258 21.573 7.75645 21.4516 7.33871 21.4516C6.09339 21.4516 5.08065 22.4644 5.08065 23.7097C5.08065 24.955 6.09339 25.9677 7.33871 25.9677C8.58403 25.9677 9.59677 24.955 9.59677 23.7097C9.59677 23.2919 9.4754 22.9058 9.27669 22.5699L10.2906 21.556L11.6065 22.991C12.3674 23.8209 12.8326 24.8635 12.9511 25.9711C12.0327 25.9892 11.2903 26.7389 11.2903 27.6613C11.2903 28.0965 11.4602 28.49 11.7306 28.7903C11.4597 29.0906 11.2903 29.4841 11.2903 29.9194C11.2903 30.8531 12.0502 31.6129 12.9839 31.6129H13.029C13.3045 33.5249 14.949 35 16.9355 35H18.0645C20.051 35 21.6955 33.5249 21.971 31.6129H22.0161C22.9498 31.6129 23.7097 30.8531 23.7097 29.9194C23.7097 29.4841 23.5398 29.0906 23.2694 28.7903C23.5403 28.49 23.7097 28.0965 23.7097 27.6613C23.7097 26.7389 22.9673 25.9892 22.0489 25.9711C22.1674 24.8635 22.6326 23.8215 23.3935 22.991L24.7094 21.556L25.7233 22.5699C25.5246 22.9058 25.4032 23.2919 25.4032 23.7097C25.4032 24.955 26.416 25.9677 27.6613 25.9677C28.9066 25.9677 29.9194 24.955 29.9194 23.7097C29.9194 22.4644 28.9066 21.4516 27.6613 21.4516C27.2435 21.4516 26.8574 21.573 26.5215 21.7717L25.4698 20.72C27.1188 18.887 28.0711 16.5629 28.1998 14.1129H29.4124C29.6749 15.3994 30.8147 16.371 32.178 16.371C33.7344 16.371 35.0006 15.1048 35.0006 13.5484C35.0006 11.992 33.7338 10.7258 32.1774 10.7258ZM2.82258 15.2419C1.88887 15.2419 1.12903 14.4821 1.12903 13.5484C1.12903 12.6147 1.88887 11.8548 2.82258 11.8548C3.75629 11.8548 4.51613 12.6147 4.51613 13.5484C4.51613 14.4821 3.75629 15.2419 2.82258 15.2419ZM27.0702 12.9839H24.8387V11.4552L23.8079 11.091C23.7729 11.0024 23.7362 10.9138 23.6973 10.8252L24.1692 9.83839L23.0887 8.75734L24.6756 7.17048C26.0694 8.74153 26.9415 10.7704 27.0702 12.9839ZM22.8352 15.3785C22.7619 15.5931 22.6715 15.8104 22.566 16.0255L22.4452 16.271L22.8059 17.0241L20.9757 18.8543L20.2221 18.4941L19.976 18.6149C19.7643 18.7194 19.5464 18.8097 19.329 18.8842L19.0705 18.9728L18.7939 19.7581H16.2061L15.929 18.9723L15.6704 18.8836C15.4531 18.8091 15.2352 18.7188 15.0235 18.6144L14.7773 18.4935L14.0237 18.8537L12.1935 17.0235L12.5543 16.2705L12.4335 16.0249C12.3279 15.8098 12.2376 15.5925 12.1642 15.378L12.0761 15.1194L11.2903 14.8423V12.254L12.0767 11.9768L12.1648 11.7182C12.2381 11.5037 12.3285 11.2864 12.434 11.0713L12.5548 10.8257L12.1941 10.0727L14.0243 8.2425L14.7779 8.60266L15.024 8.48185C15.2357 8.37742 15.4536 8.2871 15.671 8.21258L15.9295 8.12395L16.2061 7.33871H18.7939L19.071 8.12452L19.3296 8.21315C19.5469 8.28766 19.7648 8.37798 19.9765 8.48242L20.2227 8.60323L20.9763 8.24306L22.8065 10.0732L22.4457 10.8263L22.5665 11.0719C22.6721 11.2869 22.7624 11.5043 22.8358 11.7188L22.9239 11.9773L23.7097 12.2545V14.8428L22.9233 15.12L22.8352 15.3785ZM17.5 28.2258C16.8773 28.2258 16.371 27.7194 16.371 27.0968C16.371 26.4741 16.8773 25.9677 17.5 25.9677C18.1227 25.9677 18.629 26.4741 18.629 27.0968C18.629 27.7194 18.1227 28.2258 17.5 28.2258ZM27.6613 2.25806C28.284 2.25806 28.7903 2.76444 28.7903 3.3871C28.7903 4.00976 28.284 4.51613 27.6613 4.51613C27.0386 4.51613 26.5323 4.00976 26.5323 3.3871C26.5323 2.76444 27.0386 2.25806 27.6613 2.25806ZM22.2899 7.96024L21.2094 6.87919L20.2221 7.35113C20.1346 7.31218 20.0454 7.27548 19.9562 7.24048L19.5932 6.20968H18.0645V4.43597C18.3547 4.36032 18.6206 4.22992 18.8537 4.05436C20.7781 4.32589 22.5022 5.15911 23.8717 6.37847L22.2899 7.96024ZM17.5 1.12903C18.1227 1.12903 18.629 1.6354 18.629 2.25806C18.629 2.88073 18.1227 3.3871 17.5 3.3871C16.8773 3.3871 16.371 2.88073 16.371 2.25806C16.371 1.6354 16.8773 1.12903 17.5 1.12903ZM16.1463 4.05436C16.3794 4.22992 16.6453 4.36032 16.9355 4.43597V6.20968H15.4068L15.0432 7.24048C14.954 7.27548 14.8654 7.31218 14.7773 7.35113L13.79 6.87919L12.7095 7.96024L11.1277 6.37847C12.4978 5.15911 14.2219 4.32589 16.1463 4.05436ZM7.33871 4.51613C6.71605 4.51613 6.20968 4.00976 6.20968 3.3871C6.20968 2.76444 6.71605 2.25806 7.33871 2.25806C7.96137 2.25806 8.46774 2.76444 8.46774 3.3871C8.46774 4.00976 7.96137 4.51613 7.33871 4.51613ZM10.325 7.17161L11.9119 8.75847L10.8314 9.83952L11.3033 10.8263C11.2644 10.9149 11.2271 11.0035 11.1927 11.0922L10.1613 11.4552V12.9839H7.92976C8.05847 10.7704 8.93065 8.74153 10.325 7.17161ZM7.92976 14.1129H10.1613V15.6416L11.1921 16.0057C11.2271 16.0944 11.2638 16.183 11.3027 16.2716L10.8308 17.2584L11.9113 18.3394L10.3306 19.9201C8.89339 18.301 8.05564 16.2637 7.92976 14.1129ZM7.33871 24.8387C6.71605 24.8387 6.20968 24.3323 6.20968 23.7097C6.20968 23.087 6.71605 22.5806 7.33871 22.5806C7.96137 22.5806 8.46774 23.087 8.46774 23.7097C8.46774 24.3323 7.96137 24.8387 7.33871 24.8387ZM11.0899 20.7567L12.7101 19.1365L13.7906 20.2176L14.7779 19.7456C14.8654 19.7846 14.9546 19.8213 15.0438 19.8563L15.4068 20.8871H16.9355V24.9189C16.3467 25.0719 15.8556 25.4546 15.5558 25.9677H14.0864C13.9633 24.5773 13.3898 23.2665 12.4385 22.2278L11.0899 20.7567ZM12.9839 27.0968H15.2419C15.2419 27.51 15.3616 27.8922 15.5558 28.2258H12.9839C12.6723 28.2258 12.4194 27.9723 12.4194 27.6613C12.4194 27.3502 12.6723 27.0968 12.9839 27.0968ZM18.0645 33.871H16.9355C15.5727 33.871 14.4324 32.8994 14.1699 31.6129H20.8301C20.5676 32.8994 19.4273 33.871 18.0645 33.871ZM22.0161 30.4839H12.9839C12.6723 30.4839 12.4194 30.2304 12.4194 29.9194C12.4194 29.6083 12.6723 29.3548 12.9839 29.3548H22.0161C22.3277 29.3548 22.5806 29.6083 22.5806 29.9194C22.5806 30.2304 22.3277 30.4839 22.0161 30.4839ZM22.5806 27.6613C22.5806 27.9723 22.3277 28.2258 22.0161 28.2258H19.4442C19.6384 27.8922 19.7581 27.51 19.7581 27.0968H22.0161C22.3277 27.0968 22.5806 27.3502 22.5806 27.6613ZM22.5615 22.2278C21.6102 23.2665 21.0361 24.5773 20.9136 25.9677H19.4442C19.145 25.4546 18.6533 25.0719 18.0645 24.9189V20.8871H19.5932L19.9568 19.8563C20.046 19.8213 20.1346 19.7846 20.2227 19.7456L21.21 20.2176L22.2905 19.1365L23.9106 20.7567L22.5615 22.2278ZM27.6613 22.5806C28.284 22.5806 28.7903 23.087 28.7903 23.7097C28.7903 24.3323 28.284 24.8387 27.6613 24.8387C27.0386 24.8387 26.5323 24.3323 26.5323 23.7097C26.5323 23.087 27.0386 22.5806 27.6613 22.5806ZM24.6688 19.919L23.0881 18.3383L24.1686 17.2573L23.6967 16.2705C23.7356 16.1819 23.7729 16.0932 23.8073 16.0046L24.8387 15.6416V14.1129H27.0702C26.9444 16.2637 26.1066 18.301 24.6688 19.919ZM32.1774 15.2419C31.2437 15.2419 30.4839 14.4821 30.4839 13.5484C30.4839 12.6147 31.2437 11.8548 32.1774 11.8548C33.1111 11.8548 33.871 12.6147 33.871 13.5484C33.871 14.4821 33.1111 15.2419 32.1774 15.2419Z" fill="#04C3E2"/>
</svg>
