<svg width="28" height="35" viewBox="0 0 28 35" fill="none" xmlns="http://www.w3.org/2000/svg">
<path d="M23.9167 35H4.08333C3.00074 34.9988 1.96285 34.5682 1.19734 33.8027C0.431839 33.0371 0.00123513 31.9993 0 30.9167V4.08333C0.00123513 3.00074 0.431839 1.96285 1.19734 1.19734C1.96285 0.431839 3.00074 0.00123513 4.08333 0H23.9167C24.9993 0.00123513 26.0371 0.431839 26.8027 1.19734C27.5682 1.96285 27.9988 3.00074 28 4.08333V30.9167C27.9988 31.9993 27.5682 33.0371 26.8027 33.8027C26.0371 34.5682 24.9993 34.9988 23.9167 35ZM4.08333 1.16667C3.31007 1.16759 2.56874 1.47518 2.02196 2.02196C1.47518 2.56874 1.16759 3.31007 1.16667 4.08333V30.9167C1.16759 31.6899 1.47518 32.4313 2.02196 32.978C2.56874 33.5248 3.31007 33.8324 4.08333 33.8333H23.9167C24.6899 33.8324 25.4313 33.5248 25.978 32.978C26.5248 32.4313 26.8324 31.6899 26.8333 30.9167V4.08333C26.8324 3.31007 26.5248 2.56874 25.978 2.02196C25.4313 1.47518 24.6899 1.16759 23.9167 1.16667H4.08333Z" fill="#04C3E2"/>
<path d="M15.75 32.6675H12.25C11.7859 32.6675 11.3408 32.4831 11.0126 32.1549C10.6844 31.8267 10.5 31.3816 10.5 30.9175V28.5842C10.5 28.12 10.6844 27.6749 11.0126 27.3467C11.3408 27.0185 11.7859 26.8342 12.25 26.8342H15.75C16.2141 26.8342 16.6592 27.0185 16.9874 27.3467C17.3156 27.6749 17.5 28.12 17.5 28.5842V30.9175C17.5 31.3816 17.3156 31.8267 16.9874 32.1549C16.6592 32.4831 16.2141 32.6675 15.75 32.6675ZM12.25 28.0008C12.0953 28.0008 11.9469 28.0623 11.8375 28.1717C11.7281 28.2811 11.6667 28.4295 11.6667 28.5842V30.9175C11.6667 31.0722 11.7281 31.2206 11.8375 31.33C11.9469 31.4394 12.0953 31.5008 12.25 31.5008H15.75C15.9047 31.5008 16.0531 31.4394 16.1625 31.33C16.2719 31.2206 16.3333 31.0722 16.3333 30.9175V28.5842C16.3333 28.4295 16.2719 28.2811 16.1625 28.1717C16.0531 28.0623 15.9047 28.0008 15.75 28.0008H12.25Z" fill="#04C3E2"/>
<path d="M7.58416 32.6675H4.08416C3.62003 32.6675 3.17491 32.4831 2.84672 32.1549C2.51854 31.8267 2.33416 31.3816 2.33416 30.9175V28.5842C2.33416 28.12 2.51854 27.6749 2.84672 27.3467C3.17491 27.0185 3.62003 26.8342 4.08416 26.8342H7.58416C8.04829 26.8342 8.49341 27.0185 8.8216 27.3467C9.14979 27.6749 9.33416 28.12 9.33416 28.5842V30.9175C9.33416 31.3816 9.14979 31.8267 8.8216 32.1549C8.49341 32.4831 8.04829 32.6675 7.58416 32.6675ZM4.08416 28.0008C3.92945 28.0008 3.78108 28.0623 3.67168 28.1717C3.56229 28.2811 3.50083 28.4295 3.50083 28.5842V30.9175C3.50083 31.0722 3.56229 31.2206 3.67168 31.33C3.78108 31.4394 3.92945 31.5008 4.08416 31.5008H7.58416C7.73887 31.5008 7.88725 31.4394 7.99664 31.33C8.10604 31.2206 8.16749 31.0722 8.16749 30.9175V28.5842C8.16749 28.4295 8.10604 28.2811 7.99664 28.1717C7.88725 28.0623 7.73887 28.0008 7.58416 28.0008H4.08416Z" fill="#04C3E2"/>
<path d="M23.9158 32.6675H20.4158C19.9517 32.6675 19.5066 32.4831 19.1784 32.1549C18.8502 31.8267 18.6658 31.3816 18.6658 30.9175V21.5842C18.6658 21.12 18.8502 20.6749 19.1784 20.3467C19.5066 20.0185 19.9517 19.8342 20.4158 19.8342H23.9158C24.38 19.8342 24.8251 20.0185 25.1533 20.3467C25.4815 20.6749 25.6658 21.12 25.6658 21.5842V30.9175C25.6658 31.3816 25.4815 31.8267 25.1533 32.1549C24.8251 32.4831 24.38 32.6675 23.9158 32.6675ZM20.4158 21.0008C20.2611 21.0008 20.1128 21.0623 20.0034 21.1717C19.894 21.2811 19.8325 21.4295 19.8325 21.5842V30.9175C19.8325 31.0722 19.894 31.2206 20.0034 31.33C20.1128 31.4394 20.2611 31.5008 20.4158 31.5008H23.9158C24.0705 31.5008 24.2189 31.4394 24.3283 31.33C24.4377 31.2206 24.4992 31.0722 24.4992 30.9175V21.5842C24.4992 21.4295 24.4377 21.2811 24.3283 21.1717C24.2189 21.0623 24.0705 21.0008 23.9158 21.0008H20.4158Z" fill="#04C3E2"/>
<path d="M15.75 25.6675H12.25C11.7859 25.6675 11.3408 25.4831 11.0126 25.1549C10.6844 24.8267 10.5 24.3816 10.5 23.9175V21.5842C10.5 21.12 10.6844 20.6749 11.0126 20.3467C11.3408 20.0185 11.7859 19.8342 12.25 19.8342H15.75C16.2141 19.8342 16.6592 20.0185 16.9874 20.3467C17.3156 20.6749 17.5 21.12 17.5 21.5842V23.9175C17.5 24.3816 17.3156 24.8267 16.9874 25.1549C16.6592 25.4831 16.2141 25.6675 15.75 25.6675ZM12.25 21.0008C12.0953 21.0008 11.9469 21.0623 11.8375 21.1717C11.7281 21.2811 11.6667 21.4295 11.6667 21.5842V23.9175C11.6667 24.0722 11.7281 24.2206 11.8375 24.33C11.9469 24.4394 12.0953 24.5008 12.25 24.5008H15.75C15.9047 24.5008 16.0531 24.4394 16.1625 24.33C16.2719 24.2206 16.3333 24.0722 16.3333 23.9175V21.5842C16.3333 21.4295 16.2719 21.2811 16.1625 21.1717C16.0531 21.0623 15.9047 21.0008 15.75 21.0008H12.25Z" fill="#04C3E2"/>
<path d="M7.58416 25.6675H4.08416C3.62003 25.6675 3.17491 25.4831 2.84672 25.1549C2.51854 24.8267 2.33416 24.3816 2.33416 23.9175V21.5842C2.33416 21.12 2.51854 20.6749 2.84672 20.3467C3.17491 20.0185 3.62003 19.8342 4.08416 19.8342H7.58416C8.04829 19.8342 8.49341 20.0185 8.8216 20.3467C9.14979 20.6749 9.33416 21.12 9.33416 21.5842V23.9175C9.33416 24.3816 9.14979 24.8267 8.8216 25.1549C8.49341 25.4831 8.04829 25.6675 7.58416 25.6675ZM4.08416 21.0008C3.92945 21.0008 3.78108 21.0623 3.67168 21.1717C3.56229 21.2811 3.50083 21.4295 3.50083 21.5842V23.9175C3.50083 24.0722 3.56229 24.2206 3.67168 24.33C3.78108 24.4394 3.92945 24.5008 4.08416 24.5008H7.58416C7.73887 24.5008 7.88725 24.4394 7.99664 24.33C8.10604 24.2206 8.16749 24.0722 8.16749 23.9175V21.5842C8.16749 21.4295 8.10604 21.2811 7.99664 21.1717C7.88725 21.0623 7.73887 21.0008 7.58416 21.0008H4.08416Z" fill="#04C3E2"/>
<path d="M15.75 18.6675H12.25C11.7859 18.6675 11.3408 18.4831 11.0126 18.1549C10.6844 17.8267 10.5 17.3816 10.5 16.9175V14.5842C10.5 14.12 10.6844 13.6749 11.0126 13.3467C11.3408 13.0185 11.7859 12.8342 12.25 12.8342H15.75C16.2141 12.8342 16.6592 13.0185 16.9874 13.3467C17.3156 13.6749 17.5 14.12 17.5 14.5842V16.9175C17.5 17.3816 17.3156 17.8267 16.9874 18.1549C16.6592 18.4831 16.2141 18.6675 15.75 18.6675ZM12.25 14.0008C12.0953 14.0008 11.9469 14.0623 11.8375 14.1717C11.7281 14.2811 11.6667 14.4295 11.6667 14.5842V16.9175C11.6667 17.0722 11.7281 17.2206 11.8375 17.33C11.9469 17.4394 12.0953 17.5008 12.25 17.5008H15.75C15.9047 17.5008 16.0531 17.4394 16.1625 17.33C16.2719 17.2206 16.3333 17.0722 16.3333 16.9175V14.5842C16.3333 14.4295 16.2719 14.2811 16.1625 14.1717C16.0531 14.0623 15.9047 14.0008 15.75 14.0008H12.25Z" fill="#04C3E2"/>
<path d="M7.58416 18.6675H4.08416C3.62003 18.6675 3.17491 18.4831 2.84672 18.1549C2.51854 17.8267 2.33416 17.3816 2.33416 16.9175V14.5842C2.33416 14.12 2.51854 13.6749 2.84672 13.3467C3.17491 13.0185 3.62003 12.8342 4.08416 12.8342H7.58416C8.04829 12.8342 8.49341 13.0185 8.8216 13.3467C9.14979 13.6749 9.33416 14.12 9.33416 14.5842V16.9175C9.33416 17.3816 9.14979 17.8267 8.8216 18.1549C8.49341 18.4831 8.04829 18.6675 7.58416 18.6675ZM4.08416 14.0008C3.92945 14.0008 3.78108 14.0623 3.67168 14.1717C3.56229 14.2811 3.50083 14.4295 3.50083 14.5842V16.9175C3.50083 17.0722 3.56229 17.2206 3.67168 17.33C3.78108 17.4394 3.92945 17.5008 4.08416 17.5008H7.58416C7.73887 17.5008 7.88725 17.4394 7.99664 17.33C8.10604 17.2206 8.16749 17.0722 8.16749 16.9175V14.5842C8.16749 14.4295 8.10604 14.2811 7.99664 14.1717C7.88725 14.0623 7.73887 14.0008 7.58416 14.0008H4.08416Z" fill="#04C3E2"/>
<path d="M23.9158 18.6675H20.4158C19.9517 18.6675 19.5066 18.4831 19.1784 18.1549C18.8502 17.8267 18.6658 17.3816 18.6658 16.9175V14.5842C18.6658 14.12 18.8502 13.6749 19.1784 13.3467C19.5066 13.0185 19.9517 12.8342 20.4158 12.8342H23.9158C24.38 12.8342 24.8251 13.0185 25.1533 13.3467C25.4815 13.6749 25.6658 14.12 25.6658 14.5842V16.9175C25.6658 17.3816 25.4815 17.8267 25.1533 18.1549C24.8251 18.4831 24.38 18.6675 23.9158 18.6675ZM20.4158 14.0008C20.2611 14.0008 20.1128 14.0623 20.0034 14.1717C19.894 14.2811 19.8325 14.4295 19.8325 14.5842V16.9175C19.8325 17.0722 19.894 17.2206 20.0034 17.33C20.1128 17.4394 20.2611 17.5008 20.4158 17.5008H23.9158C24.0705 17.5008 24.2189 17.4394 24.3283 17.33C24.4377 17.2206 24.4992 17.0722 24.4992 16.9175V14.5842C24.4992 14.4295 24.4377 14.2811 24.3283 14.1717C24.2189 14.0623 24.0705 14.0008 23.9158 14.0008H20.4158Z" fill="#04C3E2"/>
<path d="M23.9175 10.5008H4.08416C3.62003 10.5008 3.17491 10.3165 2.84672 9.98827C2.51854 9.66008 2.33416 9.21496 2.33416 8.75083V4.08416C2.33416 3.62003 2.51854 3.17491 2.84672 2.84673C3.17491 2.51854 3.62003 2.33416 4.08416 2.33416H23.9175C24.3816 2.33416 24.8267 2.51854 25.1549 2.84673C25.4831 3.17491 25.6675 3.62003 25.6675 4.08416V8.75083C25.6675 9.21496 25.4831 9.66008 25.1549 9.98827C24.8267 10.3165 24.3816 10.5008 23.9175 10.5008ZM4.08416 3.50083C3.92945 3.50083 3.78108 3.56229 3.67168 3.67168C3.56229 3.78108 3.50083 3.92945 3.50083 4.08416V8.75083C3.50083 8.90554 3.56229 9.05391 3.67168 9.16331C3.78108 9.2727 3.92945 9.33416 4.08416 9.33416H23.9175C24.0722 9.33416 24.2206 9.2727 24.33 9.16331C24.4394 9.05391 24.5008 8.90554 24.5008 8.75083V4.08416C24.5008 3.92945 24.4394 3.78108 24.33 3.67168C24.2206 3.56229 24.0722 3.50083 23.9175 3.50083H4.08416Z" fill="#04C3E2"/>
<path d="M22.1658 8.75083C21.7017 8.75083 21.2566 8.56645 20.9284 8.23827C20.6002 7.91008 20.4158 7.46496 20.4158 7.00083V5.83416C20.4158 5.37003 20.6002 4.92491 20.9284 4.59672C21.2566 4.26854 21.7017 4.08416 22.1658 4.08416C22.63 4.08416 23.0751 4.26854 23.4033 4.59672C23.7315 4.92491 23.9158 5.37003 23.9158 5.83416V7.00083C23.9158 7.46496 23.7315 7.91008 23.4033 8.23827C23.0751 8.56645 22.63 8.75083 22.1658 8.75083ZM22.1658 5.25083C22.0111 5.25083 21.8628 5.31229 21.7534 5.42168C21.644 5.53108 21.5825 5.67945 21.5825 5.83416V7.00083C21.5825 7.15554 21.644 7.30391 21.7534 7.41331C21.8628 7.5227 22.0111 7.58416 22.1658 7.58416C22.3205 7.58416 22.4689 7.5227 22.5783 7.41331C22.6877 7.30391 22.7492 7.15554 22.7492 7.00083V5.83416C22.7492 5.67945 22.6877 5.53108 22.5783 5.42168C22.4689 5.31229 22.3205 5.25083 22.1658 5.25083Z" fill="#04C3E2"/>
</svg>
