<svg width="35" height="35" viewBox="0 0 35 35" fill="none" xmlns="http://www.w3.org/2000/svg">
<path d="M34.7158 21.3731L34.7076 21.3597C34.3341 20.791 33.764 20.3802 33.1064 20.2057C32.4488 20.0312 31.75 20.1055 31.1437 20.4142L27.406 22.3262C26.9586 21.6974 26.3 21.2505 25.5504 21.067C24.8008 20.8834 24.0103 20.9755 23.323 21.3264L18.6164 23.7389C18.3707 23.8651 18.0981 23.9301 17.8219 23.9284C17.5457 23.9267 17.274 23.8583 17.0298 23.729L13.8217 22.0258C12.6077 21.3777 11.2377 21.0786 9.86401 21.1618C8.49029 21.245 7.16647 21.7072 6.03947 22.4971L5.67667 20.7694C5.66087 20.6942 5.63037 20.6229 5.58692 20.5595C5.54347 20.4961 5.48793 20.442 5.42348 20.4001C5.35904 20.3583 5.28696 20.3296 5.21139 20.3157C5.13582 20.3018 5.05825 20.3029 4.98313 20.3191L0.460295 21.2949C0.30972 21.3274 0.178106 21.4181 0.09418 21.5473C0.0102536 21.6765 -0.0191714 21.8336 0.0123274 21.9844L2.64589 34.5327C2.67274 34.6643 2.74416 34.7825 2.84808 34.8676C2.95201 34.9526 3.08208 34.9991 3.21634 34.9994C3.2575 34.9992 3.29854 34.9949 3.33884 34.9865L7.86401 34.0124C8.01481 33.9801 8.14667 33.8893 8.23073 33.76C8.31479 33.6307 8.34421 33.4734 8.31256 33.3224L8.07924 32.199L9.62555 31.8665C10.0761 31.7705 10.5397 31.7527 10.9963 31.814L18.2693 32.6114C19.7793 32.8114 21.3102 32.4521 22.5734 31.6011L34.2235 23.785C34.6045 23.527 34.8693 23.1302 34.9613 22.6794C35.0533 22.2286 34.9652 21.7597 34.7158 21.3731ZM3.66723 33.7196L1.27282 22.3134L4.65591 21.5842L7.05207 32.9911L3.66723 33.7196ZM33.5743 22.8179L21.9248 30.634C20.8914 31.3265 19.6404 31.6169 18.4076 31.4506L11.1351 30.6533C10.5498 30.5749 9.95541 30.5986 9.37823 30.7233L7.83718 31.0546L6.29962 23.7389L6.69801 23.4613C7.64941 22.7921 8.76779 22.4 9.92875 22.3285C11.0897 22.2571 12.2477 22.5091 13.274 23.0565L16.4821 24.7597C16.892 24.9777 17.3485 25.0933 17.8127 25.0964C18.2769 25.0996 18.735 24.9902 19.1478 24.7778L23.8567 22.3624C24.3272 22.1219 24.8722 22.0711 25.379 22.2207C25.8859 22.3703 26.316 22.7087 26.5806 23.1661C26.6587 23.3 26.6807 23.4592 26.6421 23.6093C26.6034 23.7593 26.5071 23.8881 26.3742 23.9676L19.8845 27.8173C18.7497 28.4948 17.3974 28.7089 16.1088 28.4152L10.2549 27.0153L9.98369 28.1504L15.8434 29.5503C17.4251 29.9126 19.0855 29.6512 20.4794 28.8206L26.9697 24.9708C27.2354 24.8112 27.4539 24.5839 27.603 24.3121C27.752 24.0403 27.8261 23.7338 27.8178 23.4239L31.6728 21.4513C32.0219 21.274 32.424 21.2312 32.8026 21.3312C33.1812 21.4311 33.5098 21.6667 33.726 21.9931L33.7324 22.0036C33.8163 22.1335 33.8468 22.2908 33.8173 22.4426C33.7878 22.5944 33.7007 22.7289 33.5743 22.8179Z" fill="#04C3E2"/>
<path d="M3.77454 22.9734L2.63281 23.2129L2.87209 24.3535L4.01382 24.114L3.77454 22.9734Z" fill="#04C3E2"/>
<path d="M11.0833 15.166C10.9286 15.166 10.7802 15.2275 10.6708 15.3369C10.5615 15.4462 10.5 15.5946 10.5 15.7493V19.2491C10.5 19.4038 10.5615 19.5521 10.6708 19.6615C10.7802 19.7709 10.9286 19.8323 11.0833 19.8323H13.4165C13.5712 19.8323 13.7195 19.7709 13.8289 19.6615C13.9383 19.5521 13.9997 19.4038 13.9997 19.2491V15.7493C13.9997 15.5946 13.9383 15.4462 13.8289 15.3369C13.7195 15.2275 13.5712 15.166 13.4165 15.166H11.0833ZM12.8332 18.6658H11.6666V16.3326H12.8332V18.6658Z" fill="#04C3E2"/>
<path d="M16.3313 11.082C16.1766 11.082 16.0283 11.1435 15.9189 11.2529C15.8095 11.3623 15.748 11.5106 15.748 11.6653V19.2481C15.748 19.4028 15.8095 19.5512 15.9189 19.6606C16.0283 19.7699 16.1766 19.8314 16.3313 19.8314H18.6645C18.8192 19.8314 18.9676 19.7699 19.077 19.6606C19.1863 19.5512 19.2478 19.4028 19.2478 19.2481V11.6653C19.2478 11.5106 19.1863 11.3623 19.077 11.2529C18.9676 11.1435 18.8192 11.082 18.6645 11.082H16.3313ZM18.0812 18.6648H16.9146V12.2486H18.0812V18.6648Z" fill="#04C3E2"/>
<path d="M21.5833 12.834C21.4286 12.834 21.2802 12.8954 21.1708 13.0048C21.0615 13.1142 21 13.2626 21 13.4173V19.2502C21 19.4049 21.0615 19.5532 21.1708 19.6626C21.2802 19.772 21.4286 19.8335 21.5833 19.8335H23.9165C24.0712 19.8335 24.2195 19.772 24.3289 19.6626C24.4383 19.5532 24.4997 19.4049 24.4997 19.2502V13.4173C24.4997 13.2626 24.4383 13.1142 24.3289 13.0048C24.2195 12.8954 24.0712 12.834 23.9165 12.834H21.5833ZM23.3332 18.6669H22.1666V14.0006H23.3332V18.6669Z" fill="#04C3E2"/>
<path d="M26.8313 9.91602C26.6766 9.91602 26.5283 9.97747 26.4189 10.0869C26.3095 10.1962 26.248 10.3446 26.248 10.4993V19.2487C26.248 19.4034 26.3095 19.5517 26.4189 19.6611C26.5283 19.7705 26.6766 19.832 26.8313 19.832H29.1645C29.3192 19.832 29.4676 19.7705 29.577 19.6611C29.6863 19.5517 29.7478 19.4034 29.7478 19.2487V10.4993C29.7478 10.3446 29.6863 10.1962 29.577 10.0869C29.4676 9.97747 29.3192 9.91602 29.1645 9.91602H26.8313ZM28.5812 18.6654H27.4146V11.0826H28.5812V18.6654Z" fill="#04C3E2"/>
<path d="M11.0824 6.07439L14.753 9.74504C14.8624 9.85439 15.0107 9.91582 15.1654 9.91582C15.3201 9.91582 15.4684 9.85439 15.5778 9.74504L22.1649 3.15794L27.0021 7.99517C27.1115 8.10452 27.2598 8.16595 27.4145 8.16595C27.5692 8.16595 27.7175 8.10452 27.8269 7.99517L33.8307 1.99136V3.49975H34.9973V0.583291C34.9973 0.428593 34.9358 0.28023 34.8265 0.170842C34.7171 0.0614537 34.5687 0 34.414 0H31.4975V1.16658H33.0059L27.4145 6.75801L22.5773 1.92078C22.4679 1.81143 22.3196 1.75 22.1649 1.75C22.0102 1.75 21.8619 1.81143 21.7525 1.92078L15.1654 8.50788L11.4948 4.83723C11.3854 4.72788 11.237 4.66645 11.0824 4.66645C10.9277 4.66645 10.7794 4.72788 10.67 4.83723L2.50391 13.0033L3.32868 13.8281L11.0824 6.07439Z" fill="#04C3E2"/>
</svg>
